<?xml version="1.0" standalone="no"?>
<!DOCTYPE svg PUBLIC "-//W3C//DTD SVG 20010904//EN"
 "http://www.w3.org/TR/2001/REC-SVG-20010904/DTD/svg10.dtd">
<svg version="1.0" xmlns="http://www.w3.org/2000/svg"
 width="600.000000pt" height="600.000000pt" viewBox="0 0 600.000000 600.000000"
 preserveAspectRatio="xMidYMid meet">

<g transform="translate(0.000000,600.000000) scale(0.100000,-0.100000)"
fill="#000000" stroke="none">
<path d="M3018 5738 c-48 -28 -71 -81 -57 -132 7 -24 6 -42 -1 -55 -5 -11 -10
-28 -10 -39 0 -34 -32 -52 -93 -52 -49 0 -59 -4 -86 -31 -27 -26 -31 -38 -31
-82 0 -40 5 -58 23 -78 36 -42 57 -49 105 -36 36 10 45 9 59 -6 25 -24 20 -83
-9 -114 -25 -27 -108 -73 -131 -73 -8 0 -21 -7 -28 -17 -13 -15 -9 -16 55 -9
96 10 523 7 569 -3 28 -7 37 -6 37 4 0 8 -10 16 -22 20 -77 21 -153 78 -164
122 -16 61 24 96 85 75 40 -14 74 3 101 49 23 43 26 86 6 123 -22 44 -46 55
-112 56 -68 0 -94 17 -94 61 0 14 -4 29 -10 35 -6 6 -6 21 2 42 10 26 10 40
-2 74 -28 81 -115 111 -192 66z"/>
<path d="M1730 5612 c-74 -38 -159 -83 -188 -100 -29 -18 -55 -32 -58 -32 -13
0 -200 -132 -294 -207 -109 -88 -369 -337 -430 -413 -19 -24 -39 -48 -45 -54
-23 -25 -135 -175 -135 -181 0 -3 -18 -33 -40 -65 -22 -32 -40 -61 -40 -64 0
-3 -13 -24 -29 -48 -42 -63 -177 -345 -205 -428 -8 -25 -25 -72 -37 -105 -44
-121 -85 -300 -115 -500 -17 -115 -20 -604 -4 -670 5 -22 10 -59 10 -82 0 -23
4 -52 9 -65 5 -13 14 -54 21 -93 7 -38 16 -83 20 -100 5 -16 14 -50 21 -75 25
-96 51 -175 79 -245 4 -11 14 -36 21 -55 16 -44 128 -276 172 -355 32 -56 92
-149 182 -275 139 -198 373 -436 594 -605 79 -61 204 -145 246 -165 17 -8 48
-26 70 -41 56 -36 272 -140 365 -174 25 -9 54 -21 65 -26 46 -20 237 -79 335
-102 174 -42 275 -57 490 -74 174 -13 233 -14 389 -3 102 7 196 14 210 16 214
32 410 78 578 133 141 47 205 75 398 173 124 62 365 215 420 265 11 10 52 44
90 75 82 66 290 275 367 368 326 393 507 773 607 1275 77 387 61 892 -39 1255
-12 41 -25 89 -29 105 -11 40 -40 124 -52 153 -5 12 -13 32 -18 45 -48 126
-128 290 -191 392 -23 39 -51 86 -62 105 -42 73 -141 208 -235 319 -50 60
-267 279 -320 323 -79 67 -211 168 -219 168 -5 1 -25 14 -44 30 -19 17 -38 30
-43 30 -4 0 -41 22 -82 50 -40 27 -97 61 -127 75 -29 14 -75 38 -103 55 -65
39 -115 64 -119 59 -1 -2 -22 -33 -47 -69 -24 -36 -48 -68 -54 -72 -14 -10 3
-24 76 -62 113 -58 180 -95 209 -116 15 -11 31 -20 34 -20 7 0 176 -112 204
-135 10 -8 55 -44 101 -81 97 -78 262 -239 342 -334 30 -36 56 -67 59 -70 42
-40 192 -257 259 -374 67 -118 171 -333 171 -356 0 -6 4 -18 10 -28 5 -9 18
-44 29 -77 18 -54 28 -89 62 -215 11 -39 25 -107 40 -190 5 -30 14 -111 19
-180 6 -69 10 -129 11 -135 3 -22 -14 -315 -18 -315 -6 0 -39 41 -69 86 -53
77 -155 179 -259 259 -38 29 -108 92 -155 140 -129 131 -189 154 -255 93 -29
-26 -35 -38 -35 -73 0 -32 6 -49 26 -69 28 -27 55 -37 164 -57 152 -28 282
-122 435 -313 52 -65 135 -226 135 -261 0 -55 -39 -110 -40 -57 -1 16 -36 93
-70 152 -71 121 -232 263 -370 327 -55 25 -142 44 -195 42 -22 -1 -54 5 -72
14 -96 50 -213 71 -361 65 -130 -6 -177 -19 -297 -79 -87 -43 -153 -97 -209
-173 -54 -72 -78 -131 -92 -226 -20 -143 9 -243 98 -330 64 -64 108 -83 193
-88 88 -5 150 20 217 85 42 42 49 45 82 39 45 -9 91 -63 106 -126 14 -60 1
-139 -35 -211 -36 -70 -165 -198 -235 -231 -84 -40 -131 -58 -152 -58 -30 0
-16 -24 18 -31 47 -10 225 -9 274 1 65 15 161 65 215 112 57 50 134 164 162
238 36 96 46 163 40 265 -6 106 5 122 31 44 20 -60 21 -258 3 -324 -25 -86
-110 -217 -181 -278 -64 -55 -48 -63 40 -21 116 56 224 208 256 361 46 219
-31 430 -196 539 -86 56 -140 74 -229 74 -102 0 -178 -34 -221 -98 -20 -31
-25 -49 -25 -111 0 -62 -3 -76 -20 -86 -33 -22 -84 -7 -126 37 -108 112 -63
315 88 400 62 35 141 58 201 58 23 0 42 5 42 10 0 13 -124 13 -148 1 -9 -5
-44 -20 -77 -32 -71 -27 -157 -108 -195 -183 -21 -43 -25 -63 -25 -145 0 -86
3 -100 25 -131 26 -37 70 -80 83 -80 14 0 7 -15 -13 -28 -17 -11 -28 -10 -63
6 -56 26 -101 72 -133 138 -25 50 -26 62 -22 145 3 50 11 96 17 102 6 6 11 17
11 25 0 22 71 123 118 168 153 147 456 191 672 97 190 -82 314 -180 410 -323
49 -72 100 -172 100 -195 0 -9 4 -23 9 -33 27 -51 41 -289 16 -286 -12 2 -20
19 -34 77 -13 55 -41 118 -90 202 -90 152 -124 204 -139 210 -7 2 -11 1 -10
-3 6 -12 27 -61 37 -84 5 -13 14 -39 20 -58 5 -19 16 -55 23 -80 8 -29 13
-101 13 -200 0 -138 -3 -162 -24 -219 -26 -71 -71 -154 -104 -188 -46 -50 1
-41 233 48 58 22 113 45 122 50 10 5 20 9 23 9 25 0 -54 -172 -89 -195 -11 -7
-82 -34 -156 -58 -431 -141 -664 -181 -1015 -175 l-160 3 -7 48 c-8 59 -24 78
-109 128 -37 21 -91 65 -121 99 -72 79 -93 141 -84 247 6 65 5 77 -11 89 -10
7 -26 14 -36 14 -10 0 -37 19 -60 43 -47 47 -88 124 -116 217 -6 19 -18 58
-27 85 -9 28 -21 73 -26 100 -5 28 -13 73 -19 100 -44 216 -55 644 -18 720
l14 30 137 3 137 3 21 34 c40 64 8 127 -88 172 -48 23 -122 97 -122 122 0 11
14 33 30 49 47 47 35 116 -29 161 -28 20 -40 21 -424 21 -431 0 -435 0 -477
-60 -29 -41 -26 -85 10 -130 17 -21 30 -43 30 -49 0 -19 -82 -95 -122 -114
-94 -44 -125 -103 -93 -171 l17 -36 130 0 c71 0 138 -4 148 -10 34 -18 43 -98
38 -335 -4 -207 -13 -289 -50 -475 -51 -257 -127 -422 -215 -466 -73 -36 -74
-38 -67 -119 10 -110 -13 -172 -93 -252 -34 -35 -71 -63 -82 -63 -11 0 -23 -4
-26 -10 -18 -29 -141 -3 -243 50 -61 32 -148 113 -137 129 3 5 29 15 57 23 64
16 141 86 178 163 22 44 25 63 25 160 0 113 -1 114 -56 215 -80 147 -266 249
-452 250 -84 1 -94 7 -154 95 -82 122 -108 205 -107 345 0 92 3 112 27 161 45
96 129 157 227 166 l57 5 31 -55 c91 -160 296 -175 445 -32 168 161 192 451
58 713 -136 266 -380 447 -691 513 -94 20 -354 18 -452 -4 -87 -19 -159 -42
-201 -64 -16 -8 -31 -13 -33 -10 -11 11 238 297 342 392 150 137 345 278 529
385 86 49 236 124 273 135 12 3 22 13 22 22 0 18 -31 73 -42 73 -4 0 -8 5 -8
11 0 20 -41 69 -58 69 -9 0 -78 -31 -152 -68z m-235 -1023 c206 -51 338 -122
474 -257 97 -97 195 -275 212 -387 11 -67 13 -180 4 -230 -11 -62 -60 -156
-102 -197 -73 -69 -196 -85 -250 -32 -30 30 -21 49 32 64 171 48 231 317 122
550 -40 86 -175 249 -184 222 -3 -6 7 -26 21 -43 23 -27 34 -49 67 -124 33
-79 37 -217 9 -280 -14 -29 -14 -26 -21 60 -4 50 -12 106 -17 125 -6 19 -14
46 -18 60 -4 14 -15 37 -26 52 -10 14 -18 31 -18 37 0 7 -35 47 -77 90 -59 59
-97 87 -154 115 -42 20 -87 39 -100 41 -135 27 -225 30 -317 10 -63 -14 -39
-20 76 -20 71 0 135 -5 162 -14 190 -58 310 -164 379 -334 6 -15 11 -63 11
-106 0 -68 -3 -83 -29 -123 -40 -62 -79 -88 -134 -88 -38 0 -49 5 -67 27 -13
16 -19 36 -16 48 2 11 9 36 14 57 30 117 -68 246 -227 297 -81 26 -242 8 -361
-41 -66 -27 -98 -47 -169 -106 -87 -72 -163 -170 -212 -272 -22 -47 -44 -93
-50 -102 -5 -10 -9 -26 -9 -36 0 -10 -4 -22 -9 -27 -23 -26 -71 -284 -71 -385
0 -32 3 -79 7 -106 7 -42 9 -33 14 71 11 203 31 287 101 435 53 110 107 189
182 269 60 62 183 151 211 151 7 0 17 5 20 10 3 6 16 10 29 10 12 0 27 5 33
11 17 17 221 14 263 -4 71 -31 106 -95 73 -135 l-18 -23 -35 24 c-61 41 -121
52 -203 37 -216 -40 -363 -181 -467 -445 -21 -55 -32 -109 -39 -205 -19 -261
39 -454 186 -617 72 -79 188 -150 272 -167 62 -11 77 -40 41 -76 -38 -38 -178
-15 -221 36 -13 16 -29 19 -29 5 0 -15 64 -121 110 -182 48 -64 188 -209 202
-209 5 0 6 9 1 23 -15 41 -9 169 10 227 42 124 150 229 277 270 54 18 256 20
291 4 96 -45 122 -61 170 -108 97 -94 140 -219 108 -317 -33 -102 -75 -145
-152 -155 -42 -6 -49 -4 -77 25 l-31 31 20 26 c27 35 13 64 -31 64 -41 0 -97
-58 -100 -103 -5 -83 5 -144 33 -201 50 -104 12 -84 -54 28 -40 67 -42 74 -42
151 0 74 3 83 34 128 53 77 135 99 202 54 40 -27 71 -82 63 -115 -4 -19 -1
-23 13 -20 41 8 55 93 26 156 -26 55 -68 89 -140 112 -70 22 -175 -12 -243
-80 -35 -35 -47 -54 -79 -133 -14 -36 -14 -138 0 -174 61 -150 154 -240 314
-304 54 -21 191 -48 256 -50 27 -1 52 -6 55 -11 3 -5 -4 -25 -15 -44 -29 -48
-26 -77 9 -118 29 -32 45 -42 135 -81 71 -30 79 -33 145 -55 36 -12 74 -26 85
-30 37 -16 205 -54 210 -48 4 3 -6 19 -21 34 -31 34 -54 83 -54 119 0 13 13
39 29 57 l29 33 129 3 128 3 68 -41 c125 -76 301 -133 502 -162 110 -16 506
-15 620 1 44 6 100 13 125 16 64 8 215 34 285 50 258 59 320 77 570 162 184
64 205 69 205 55 0 -6 -3 -12 -8 -14 -6 -2 -66 -83 -113 -151 -6 -8 -175 -71
-234 -87 -16 -4 -66 -19 -110 -33 -44 -14 -93 -27 -110 -30 -16 -3 -75 -15
-130 -27 -166 -36 -273 -49 -507 -60 -205 -10 -440 -8 -563 6 -71 8 -238 42
-320 66 -70 20 -270 112 -281 129 -9 15 -90 10 -103 -5 -52 -62 219 -198 489
-245 266 -46 587 -52 950 -16 163 15 200 17 200 8 0 -23 -299 -83 -540 -108
-30 -3 -79 -10 -109 -15 -30 -6 -71 -10 -92 -10 -43 0 -69 -8 -69 -21 0 -12
209 -11 335 2 313 31 338 34 600 84 50 9 98 21 107 26 10 5 26 9 35 9 10 0 41
8 68 19 28 10 67 22 88 25 32 6 37 5 30 -7 -10 -17 -167 -161 -208 -192 -34
-25 -210 -62 -365 -76 -294 -28 -407 -27 -651 1 -125 15 -189 13 -189 -4 0
-26 -68 -82 -122 -100 -101 -34 -199 -46 -383 -46 -289 0 -622 52 -905 140
-117 36 -197 63 -247 81 -161 58 -171 62 -268 104 -97 42 -240 107 -285 130
-62 32 -159 84 -200 108 -25 15 -67 38 -95 52 -30 16 -62 43 -80 68 -96 135
-125 180 -121 184 3 3 56 -20 118 -50 360 -176 688 -288 1018 -347 36 -6 74
-14 85 -16 11 -3 85 -11 165 -18 131 -12 169 -13 250 -7 14 1 -17 13 -68 26
-135 35 -250 73 -337 109 -16 7 -55 23 -85 36 -30 13 -73 31 -95 40 -22 10
-87 23 -145 30 -237 27 -549 132 -715 240 -22 14 -53 32 -70 40 -16 8 -90 54
-162 102 -131 87 -133 89 -170 161 -78 151 -152 331 -142 341 3 3 68 -57 145
-132 76 -76 159 -153 184 -172 25 -19 47 -37 50 -40 23 -24 181 -134 243 -169
20 -12 54 -31 75 -43 77 -45 259 -135 315 -156 113 -43 162 -60 191 -67 24 -5
26 -4 15 7 -8 7 -27 20 -44 28 -16 8 -41 22 -55 31 -14 9 -42 26 -62 38 -21
11 -55 31 -75 42 -97 54 -358 237 -450 314 -161 135 -297 294 -401 468 -28 48
-52 90 -52 92 0 3 -9 24 -19 48 -26 57 -57 150 -71 217 -7 30 -17 69 -22 85
-5 17 -12 113 -15 215 -9 322 24 521 118 714 44 92 17 85 -38 -10 -16 -26 -34
-49 -41 -52 -14 -4 -16 21 -2 46 5 9 21 51 34 93 68 208 188 442 270 523 79
78 302 169 466 190 61 7 263 -2 315 -15z m1528 -615 l38 -7 -3 -66 -3 -66
-134 0 -133 0 -27 33 c-15 17 -35 32 -44 32 -9 0 -17 3 -17 8 1 53 180 89 323
66z m535 -259 c24 -9 40 -20 37 -24 -4 -3 -124 -8 -268 -11 l-262 -5 -3 -52
-3 -53 -177 1 c-97 1 -190 5 -207 9 -21 5 -24 8 -10 9 14 2 9 6 -17 18 -44 18
-47 26 -15 41 20 10 19 11 -16 11 -51 1 -45 18 19 54 l49 28 415 -4 c370 -3
420 -6 458 -22z m-2351 -52 c-34 -66 -88 -187 -96 -218 -37 -139 -32 -321 11
-460 23 -75 87 -212 120 -257 17 -25 18 -28 2 -28 -19 0 -50 33 -103 110 -110
163 -147 348 -106 537 24 107 138 321 173 323 2 0 1 -3 -1 -7z m-180 -50 c-79
-152 -110 -307 -96 -488 11 -138 55 -286 111 -367 10 -14 18 -34 18 -44 0 -16
-2 -16 -21 2 -26 23 -119 159 -119 174 0 6 -4 18 -10 28 -43 77 -63 281 -40
395 21 98 71 209 121 270 28 33 46 49 36 30z m3983 -198 c16 -19 -3 -45 -31
-45 -34 0 -23 55 12 59 4 1 12 -6 19 -14z m-3735 -325 c22 -79 53 -161 77
-203 16 -26 28 -50 28 -53 0 -3 11 -22 25 -42 14 -20 25 -40 25 -44 0 -20 -31
-4 -68 36 -49 52 -84 112 -119 204 -38 102 -36 265 5 362 3 8 9 -41 13 -110 4
-69 10 -136 14 -150z m1787 -297 l3 -568 240 -3 c147 -2 250 -7 265 -14 61
-27 69 -32 64 -40 -3 -4 -133 -8 -290 -8 l-284 0 0 -60 0 -59 -167 -3 c-209
-4 -303 0 -303 12 0 6 7 10 15 10 18 0 19 12 4 27 -14 14 11 28 70 38 57 9 37
21 -51 30 -37 4 -68 10 -68 14 0 4 17 17 38 29 27 15 59 22 110 24 57 1 68 4
54 13 -14 7 -17 16 -11 35 4 14 7 36 8 50 1 20 -1 22 -9 10 -15 -23 -13 15 5
80 26 94 55 227 66 303 24 166 39 317 39 392 0 134 12 245 25 245 13 0 21 -50
32 -201 3 -49 9 -87 12 -83 3 3 6 9 7 12 0 4 4 60 8 125 4 64 12 119 16 122
16 10 24 -20 22 -78 -5 -101 20 -131 32 -40 13 91 27 153 37 153 5 0 10 -230
11 -567z m1748 -585 c-26 -132 -110 -266 -211 -335 -63 -43 -176 -93 -211 -93
-29 0 -16 12 52 47 31 15 80 48 110 73 52 42 150 150 150 165 0 4 8 19 18 33
11 15 34 66 53 114 25 64 36 83 42 71 6 -9 4 -40 -3 -75z m-1750 -332 c0 -57
-2 -64 -22 -71 -39 -12 -7 -14 345 -18 234 -2 337 0 337 7 0 6 -13 26 -29 45
-16 19 -31 46 -34 60 -5 24 -2 23 29 -14 18 -22 34 -43 34 -47 0 -3 22 -24 50
-46 27 -22 46 -42 43 -46 -3 -3 -174 -6 -379 -6 l-373 0 -3 -62 -3 -63 -393
-3 c-241 -1 -400 2 -411 8 -10 5 -18 19 -17 32 1 17 19 31 77 63 139 74 179
100 179 117 0 12 11 19 38 23 20 3 51 10 67 14 29 9 28 9 -12 10 -53 1 -55 14
-5 40 34 18 58 20 260 21 l222 0 0 -64z m-1708 -874 c18 -9 51 -23 73 -30 46
-15 140 -50 170 -62 28 -12 113 -40 155 -52 19 -5 51 -14 70 -19 19 -6 51 -14
70 -19 19 -5 53 -14 75 -20 22 -6 63 -15 90 -20 28 -6 70 -15 95 -20 25 -6 72
-14 105 -19 169 -26 207 -31 256 -36 30 -3 83 -10 119 -15 273 -39 900 -39
1295 0 61 6 148 13 194 15 46 3 87 8 92 11 5 3 14 2 19 -1 18 -11 -10 -35 -41
-35 -15 0 -30 -4 -33 -9 -3 -4 -25 -11 -48 -15 -24 -3 -68 -10 -98 -16 -131
-24 -395 -35 -810 -35 -502 0 -706 16 -985 75 -27 5 -66 13 -85 16 -19 3 -78
17 -130 31 -52 14 -111 29 -130 33 -83 20 -114 30 -295 99 -65 25 -216 106
-247 132 -37 32 -25 38 24 11z m3078 -170 c0 -5 -19 -15 -42 -22 -24 -7 -54
-16 -68 -20 -14 -5 -50 -11 -80 -15 -30 -4 -82 -11 -115 -16 -84 -13 -457 -23
-502 -14 l-38 8 35 8 c19 5 85 13 145 19 61 6 146 15 190 20 44 5 143 14 220
20 77 6 147 12 155 14 30 7 100 6 100 -2z m-1320 -287 c349 1 654 4 677 9 23
4 49 4 58 -1 13 -8 8 -12 -22 -21 -21 -6 -66 -16 -100 -21 -123 -21 -179 -30
-258 -42 -103 -15 -714 -16 -810 -1 -38 6 -108 16 -155 22 -47 7 -103 15 -125
20 -22 5 -67 14 -100 21 -108 22 -85 31 60 22 77 -4 426 -8 775 -8z"/>
<path d="M2725 1120 c6 -9 41 -26 103 -50 34 -13 43 -30 16 -30 -9 0 -35 5
-58 11 -22 6 -59 15 -81 21 -22 6 -63 19 -91 30 l-51 19 -69 -23 c-63 -21 -87
-23 -261 -23 -106 0 -189 -3 -185 -6 10 -10 237 -84 297 -97 244 -54 404 -73
594 -72 170 2 249 15 309 52 51 31 41 43 -50 57 -121 19 -219 44 -386 98 -80
25 -96 28 -87 13z"/>
<path d="M4169 5142 c-18 -9 -40 -30 -47 -45 -10 -21 -18 -27 -30 -21 -35 15
-77 15 -97 0 -19 -15 -18 -15 16 -16 35 0 87 -30 114 -67 13 -17 14 -15 15 15
0 37 22 85 53 119 27 31 18 36 -24 15z"/>
<path d="M1882 5097 c-30 -32 -29 -80 3 -101 35 -23 64 -20 91 12 29 33 30 46
3 83 -26 36 -66 39 -97 6z"/>
<path d="M1352 4967 c-67 -72 34 -172 103 -102 32 31 33 74 2 103 -31 29 -77
29 -105 -1z"/>
<path d="M3161 4950 c-32 -5 -52 -15 -70 -38 -53 -62 -74 -204 -50 -327 5 -27
13 -63 16 -79 9 -45 -11 -24 -46 48 -49 103 -64 205 -40 275 6 18 8 35 5 38
-8 8 -30 -21 -57 -77 -32 -65 -32 -219 0 -308 37 -104 4 -95 -50 14 -33 66
-53 84 -44 39 3 -14 7 -37 10 -52 3 -16 8 -36 11 -45 4 -12 0 -18 -11 -18 -9
0 -19 10 -23 22 l-5 22 -9 -23 c-4 -12 -13 -19 -19 -16 -30 19 -119 262 -119
328 0 20 -4 37 -9 37 -18 0 -22 -88 -6 -161 18 -87 18 -96 5 -83 -26 26 -70
160 -70 212 0 57 17 122 33 122 4 0 5 5 2 10 -10 16 -19 12 -60 -25 -21 -20
-40 -33 -43 -31 -2 3 8 26 23 51 15 26 24 49 22 52 -12 11 -95 -58 -112 -93
-28 -60 -15 -105 93 -322 l99 -197 457 -2 c422 -2 457 -1 463 15 3 9 45 98 94
197 48 99 94 201 100 227 12 45 11 49 -17 95 -34 54 -70 76 -159 92 -64 12
-343 13 -414 1z"/>
<path d="M4620 4839 c-45 -28 -59 -47 -60 -82 0 -32 -20 -43 -50 -27 -17 9
-29 7 -65 -10 -44 -21 -72 -46 -63 -56 3 -3 27 0 53 7 58 15 111 1 159 -41 18
-16 35 -27 38 -24 3 2 -1 23 -9 45 -20 59 0 144 41 178 15 12 13 31 -2 31 -4
0 -23 -10 -42 -21z"/>
<path d="M1760 4811 c-7 -15 -6 -23 6 -35 19 -19 26 -20 42 -4 17 17 15 45 -4
52 -25 10 -33 7 -44 -13z"/>
<path d="M4806 4594 c-23 -22 -20 -43 9 -56 27 -12 55 2 55 28 0 14 -27 44
-40 44 -5 0 -16 -7 -24 -16z"/>
<path d="M3447 4294 c-3 -3 -84 -5 -179 -4 -96 0 -182 -2 -191 -6 -11 -4 -17
-17 -17 -35 0 -44 -27 -53 -145 -47 -109 6 -164 25 -161 55 1 13 -10 19 -48
25 -55 10 -65 6 -45 -18 11 -14 10 -18 -6 -30 -38 -26 -45 -35 -45 -57 0 -44
24 -62 77 -60 362 12 531 13 668 4 150 -10 162 -9 185 8 19 14 25 27 23 52 -1
18 -6 35 -11 37 -5 1 -18 9 -28 16 -18 14 -18 15 -1 33 9 11 17 22 17 25 0 7
-86 9 -93 2z"/>
<path d="M4125 4261 c-3 -6 10 -17 28 -26 68 -32 103 -82 114 -160 8 -59 18
-64 39 -19 31 65 138 123 199 108 36 -9 31 11 -7 29 -60 28 -83 30 -129 8 -23
-12 -48 -21 -53 -21 -6 1 -23 18 -37 39 -18 26 -37 40 -59 45 -47 9 -88 8 -95
-3z"/>
<path d="M5114 4222 c-6 -4 -16 -17 -22 -28 -10 -18 -8 -27 9 -48 26 -33 52
-33 78 0 26 33 26 39 1 64 -21 21 -47 25 -66 12z"/>
<path d="M4784 4039 c-21 -24 -10 -52 24 -57 30 -5 45 29 26 56 -19 27 -26 27
-50 1z m36 -33 c0 -3 -4 -8 -10 -11 -5 -3 -10 -1 -10 4 0 6 5 11 10 11 6 0 10
-2 10 -4z"/>
<path d="M5161 3836 c-17 -18 -22 -33 -19 -62 3 -34 10 -43 53 -74 74 -52 157
-139 184 -193 26 -50 41 -67 41 -45 0 11 -13 75 -40 188 -17 74 -46 136 -82
172 -47 47 -101 53 -137 14z m53 -11 c3 -8 -3 -19 -14 -25 -22 -12 -33 0 -24
24 8 20 30 21 38 1z"/>
<path d="M4739 3793 c-7 -16 -13 -23 -16 -15 -9 23 -23 12 -23 -18 0 -23 7
-33 30 -45 16 -8 39 -15 52 -15 13 0 49 -13 81 -29 31 -16 57 -27 57 -24 0 4
-70 107 -92 134 -15 18 -51 39 -68 39 -6 0 -15 -12 -21 -27z"/>
<path d="M4281 3521 c-9 -6 -10 -11 -2 -15 16 -10 13 -36 -5 -43 -9 -3 -20 0
-25 8 -6 11 -11 11 -20 2 -15 -15 5 -69 32 -83 10 -6 53 -10 96 -10 69 0 129
-9 187 -26 10 -4 17 -2 15 4 -6 17 -193 162 -209 162 -8 0 -24 3 -35 5 -11 3
-26 1 -34 -4z"/>
<path d="M4646 2991 c-3 -5 8 -11 25 -15 48 -9 56 -7 29 9 -29 17 -47 19 -54
6z"/>
<path d="M4475 2888 c-65 -23 -136 -88 -161 -146 -21 -50 -18 -130 6 -169 11
-18 23 -33 27 -33 5 0 8 28 9 63 1 139 115 246 280 263 59 6 65 9 49 21 -23
16 -165 17 -210 1z"/>
</g>
</svg>
