<?xml version="1.0" standalone="no"?>
<!DOCTYPE svg PUBLIC "-//W3C//DTD SVG 20010904//EN"
 "http://www.w3.org/TR/2001/REC-SVG-20010904/DTD/svg10.dtd">
<svg version="1.0" xmlns="http://www.w3.org/2000/svg"
 width="209.000000pt" height="185.000000pt" viewBox="0 0 209.000000 185.000000"
 preserveAspectRatio="xMidYMid meet">

<g transform="translate(0.000000,185.000000) scale(0.100000,-0.100000)"
fill="#000000" stroke="none">
<path d="M870 1675 c-247 -56 -447 -220 -541 -444 -231 -553 254 -1145 839
-1025 480 98 738 618 526 1061 -90 188 -276 343 -479 398 -85 23 -264 28 -345
10z m334 -45 c378 -96 608 -488 510 -867 -15 -59 -73 -193 -84 -193 -3 0 -17
11 -30 25 -25 26 -24 29 14 120 71 170 53 386 -46 553 -80 135 -241 252 -394
288 -94 22 -256 15 -339 -15 -103 -38 -95 -38 -95 8 0 39 3 43 37 58 110 46
299 56 427 23z m-434 -675 l90 90 134 -134 134 -134 4 -64 c2 -34 1 -63 -2
-63 -3 0 -64 60 -137 132 l-133 133 -104 -105 c-57 -58 -118 -118 -135 -134
l-31 -30 0 427 0 427 43 31 42 30 3 -347 2 -348 90 89z m-275 316 c-52 -83
-85 -191 -92 -291 -24 -396 336 -723 723 -656 100 17 186 51 257 102 26 19 49
34 51 34 6 0 56 -49 56 -55 0 -16 -160 -107 -228 -128 -110 -36 -125 -38 -233
-38 -121 0 -207 20 -319 74 -69 33 -102 58 -176 132 -74 73 -98 106 -132 175
-60 121 -77 194 -76 325 0 173 47 310 151 440 l48 60 3 -58 c3 -51 -1 -64 -33
-116z m965 -89 c0 -4 -59 -66 -130 -137 l-130 -130 195 -195 c107 -107 195
-199 195 -205 0 -5 -12 -22 -27 -37 l-27 -29 -233 233 -233 233 137 137 138
138 57 0 c32 0 58 -3 58 -8z"/>
</g>
</svg>
